<?xml version="1.0" encoding="utf-8"?>
<!-- Generator: Adobe Illustrator 26.3.1, SVG Export Plug-In . SVG Version: 6.00 Build 0)  -->
<svg version="1.1" id="Layer_1" xmlns="http://www.w3.org/2000/svg" xmlns:xlink="http://www.w3.org/1999/xlink" x="0px" y="0px"
	 viewBox="0 0 80 80" style="enable-background:new 0 0 80 80;" xml:space="preserve">
<style type="text/css">
	.st0{fill:#323232;}
	.st1{fill:none;stroke:#0C9CFF;}
</style>
<g>
	<path class="st0" d="M25.7,32c-1.7,0-3.1,1.5-3.1,3.3v9.3c0,1.8,1.4,3.3,3.1,3.3s3.1-1.5,3.1-3.3v-9.3C28.8,33.5,27.4,32,25.7,32z"
		/>
	<path class="st0" d="M54.3,32c-1.7,0-3.1,1.5-3.1,3.3v9.3c0,1.8,1.4,3.3,3.1,3.3c1.7,0,3.1-1.5,3.1-3.3v-9.3
		C57.4,33.5,56,32,54.3,32z"/>
	<path class="st0" d="M30,51.3h2.5v5.9c0,1.5,1.2,2.6,2.5,2.6c1.4,0,2.5-1.2,2.5-2.6v-5.9h4.9v5.9c0,1.5,1.2,2.6,2.5,2.6
		c1.4,0,2.5-1.2,2.5-2.6v-5.9h2.5V32H30V51.3z"/>
	<path class="st0" d="M49.9,29.9c-0.1-1.4-0.9-3.6-2.6-5.4c-0.4-0.4-0.9-1-1.7-1.4l0.9-2.1c0.1-0.3,0-0.7-0.3-0.8
		c-0.3-0.1-0.6,0-0.8,0.3l-0.9,2.1c-1.2-0.7-2.7-1.1-4.7-1.1s-3.5,0.4-4.8,1.1l-0.9-2.1c-0.1-0.3-0.5-0.4-0.8-0.3
		c-0.3,0.1-0.4,0.6-0.3,0.8l0.9,2.1c-2.7,1.8-4,4.7-4.1,6.9v0.7H50L49.9,29.9z M36.8,27.9c-0.6,0-1.3-0.6-1.3-1.4
		c0-0.7,0.5-1.4,1.3-1.4c0.6,0,1.3,0.6,1.3,1.4C38.1,27.4,37.5,27.9,36.8,27.9z M43,27.9c-0.6,0-1.3-0.6-1.3-1.4
		c0-0.7,0.5-1.4,1.3-1.4c0.6,0,1.3,0.6,1.3,1.4C44.3,27.4,43.7,27.9,43,27.9z"/>
</g>
<g>
	<path class="st1" d="M7.4,36.8V14c0-3.5,2.9-6.5,6.5-6.5h26"/>
	<path class="st1" d="M35,2.5l4.9,4.9L35,12.4"/>
	<path class="st1" d="M12.2,46.5l-4.9-4.9l-4.8,4.9"/>
	<path class="st1" d="M44.9,7.4h21.2c3.5,0,6.5,2.9,6.5,6.5v26"/>
	<path class="st1" d="M72.5,44.9v21.2c0,3.5-2.9,6.5-6.5,6.5h-26"/>
	<path class="st1" d="M44.9,67.8l-4.9,4.8l4.9,4.9"/>
	<path class="st1" d="M35,72.6H13.9c-3.5,0-6.5-2.9-6.5-6.5V41.6"/>
	<path class="st1" d="M67.7,35.1l4.9,4.9l4.9-4.9"/>
</g>
</svg>
