<?xml version="1.0" encoding="utf-8"?>
<!-- Generator: Adobe Illustrator 26.3.1, SVG Export Plug-In . SVG Version: 6.00 Build 0)  -->
<svg version="1.1" id="Layer_1" xmlns="http://www.w3.org/2000/svg" xmlns:xlink="http://www.w3.org/1999/xlink" x="0px" y="0px"
	 viewBox="0 0 80 80" style="enable-background:new 0 0 80 80;" xml:space="preserve">
<style type="text/css">
	.st0{fill:#323232;}
	.st1{fill:none;stroke:#0C9CFF;}
	.st2{fill:none;stroke:#323232;}
</style>
<path class="st0" d="M62.9,22.4H18c-0.1-14,9.1-20.7,22.5-20.7C53.8,1.6,63,8.4,62.9,22.4z"/>
<path class="st1" d="M70.9,28.5v17c0,2.2-1.5,4.1-3.7,4.6l-5.9,1.4L51,54.1c-1.7,0-3.4-0.5-4.8-1.3l-2.5-1.5c-2-1.2-4.6-1.2-6.6,0
	l-2.5,1.5c-1.5,0.9-3.1,1.3-4.8,1.3l-10.2-2.5l-5.9-1.4c-2.2-0.5-3.7-2.4-3.7-4.6v-17c0-2.6,2.1-4.8,4.8-4.8h51.3
	C68.7,23.7,70.9,25.9,70.9,28.5z"/>
<path class="st2" d="M56.5,78V64.8 M24.4,78V64.8"/>
<path class="st0" d="M61.3,53l0,5.7c0,4.1-1.8,6.3-5,9c-2.3,2-4.9,4-7.3,5.7c-5.1,3.7-12,3.7-17.1,0c-2.4-1.7-5.1-3.7-7.3-5.7
	c-3.1-2.7-5-4.9-5-9V53l10.2,2.5c1.7,0,3.4-0.5,4.8-1.3l2.5-1.5c2-1.2,4.6-1.2,6.6,0l2.5,1.5c1.5,0.9,3.1,1.3,4.8,1.3L61.3,53z"/>
<path class="st1" d="M35.6,28.5h9.6 M14.8,28.5v14.4 M66.1,28.5v14.4"/>
</svg>
