<?xml version="1.0" encoding="utf-8"?>
<!-- Generator: Adobe Illustrator 26.3.1, SVG Export Plug-In . SVG Version: 6.00 Build 0)  -->
<svg version="1.1" id="Layer_1" xmlns="http://www.w3.org/2000/svg" xmlns:xlink="http://www.w3.org/1999/xlink" x="0px" y="0px"
	 viewBox="0 0 80 80" style="enable-background:new 0 0 80 80;" xml:space="preserve">
<style type="text/css">
	.st0{fill:#323232;}
	.st1{fill:none;stroke:#323232;stroke-miterlimit:10;}
	.st2{fill:#0C9CFF;}
	.st3{fill:none;stroke:#0C9CFF;stroke-miterlimit:10;}
</style>
<ellipse class="st0" cx="40" cy="70.6" rx="6.6" ry="6.9"/>
<ellipse class="st0" cx="40" cy="35.6" rx="6.6" ry="6.9"/>
<path class="st1" d="M40,60.1V42.6"/>
<path class="st2" d="M51.4,47.9c0,3.8,2.9,6.9,6.6,6.9s6.6-3.1,6.6-6.9S61.7,41,58,41C54.3,40.9,51.4,44,51.4,47.9z"/>
<path class="st3" d="M48.2,61.8l5.7-8.7"/>
<path class="st2" d="M28.6,47.9c0,3.8-2.9,6.9-6.6,6.9s-6.6-3.1-6.6-6.9S18.3,41,22,41S28.6,44,28.6,47.9z"/>
<path class="st3" d="M31.8,61.8l-5.7-8.7"/>
<path class="st0" d="M33.4,9.4c0,3.8-2.9,6.9-6.6,6.9s-6.6-3.1-6.6-6.9s2.9-6.9,6.6-6.9S33.4,5.6,33.4,9.4z"/>
<path class="st1" d="M35.1,25.2l-4.9-8.7"/>
<ellipse class="st0" cx="53.2" cy="9.4" rx="6.6" ry="6.9"/>
<line class="st3" x1="64.5" y1="37.4" x2="67.8" y2="32.2"/>
<path class="st2" d="M77.5,25.2c0,3.8-2.9,6.9-6.6,6.9c-3.6,0-6.6-3.1-6.6-6.9s2.9-6.9,6.6-6.9C74.6,18.2,77.5,21.3,77.5,25.2
	L77.5,25.2z"/>
<path class="st3" d="M15.5,37.4l-3.3-5.2"/>
<path class="st2" d="M2.5,25.2c0,3.8,2.9,6.9,6.6,6.9c3.6,0,6.6-3.1,6.6-6.9s-2.9-6.9-6.6-6.9C5.4,18.2,2.5,21.3,2.5,25.2L2.5,25.2z
	"/>
<line class="st1" x1="44.9" y1="25.2" x2="49.8" y2="16.5"/>
</svg>
