<?xml version="1.0" encoding="utf-8"?>
<!-- Generator: Adobe Illustrator 26.3.1, SVG Export Plug-In . SVG Version: 6.00 Build 0)  -->
<svg version="1.1" id="Layer_1" xmlns="http://www.w3.org/2000/svg" xmlns:xlink="http://www.w3.org/1999/xlink" x="0px" y="0px"
	 viewBox="0 0 80 80" style="enable-background:new 0 0 80 80;" xml:space="preserve">
<style type="text/css">
	.st0{fill:#323232;}
	.st1{fill:#0C9CFF;stroke:#FFFFFF;stroke-miterlimit:10;}
	.st2{fill:#FFFFFF;stroke:#FFFFFF;stroke-miterlimit:10;}
</style>
<g>
	<path class="st0" d="M18.8,52.5h-4.9c-6.3,0-11.4-5.1-11.4-11.4c0-6,4.6-10.9,10.5-11.4c-0.5-1.6-0.8-3.2-0.8-4.9
		c0-9,7.3-16.3,16.3-16.3c7.1,0,13.2,4.6,15.4,10.9c2-1.7,4.6-2.8,7.5-2.8c6.3,0,11.4,5.1,11.4,11.4c0,0.7-0.1,1.5-0.2,2.2
		c1.1-0.4,2.3-0.5,3.5-0.5c6.3,0,11.4,5.1,11.4,11.4s-5.1,11.4-11.4,11.4h-6.5H18.8z"/>
	<path class="st1" d="M56.7,46.2h-35V35c0-0.8,0.6-1.4,1.4-1.4h32.3c0.8,0,1.4,0.6,1.4,1.4V46.2z"/>
	<path class="st1" d="M56.7,46.2v12.6h-35V46.2"/>
	<path class="st1" d="M56.7,58.9v11.2c0,0.8-0.6,1.4-1.4,1.4H23.1c-0.8,0-1.4-0.6-1.4-1.4V58.9"/>
	<path class="st2" d="M25.8,40.6h2.8"/>
	<path class="st2" d="M25.8,53.2h2.8"/>
	<path class="st2" d="M25.8,65.9h2.8"/>
</g>
</svg>
