<?xml version="1.0" encoding="utf-8"?>
<!-- Generator: Adobe Illustrator 26.3.1, SVG Export Plug-In . SVG Version: 6.00 Build 0)  -->
<svg version="1.1" id="Layer_1" xmlns="http://www.w3.org/2000/svg" xmlns:xlink="http://www.w3.org/1999/xlink" x="0px" y="0px"
	 viewBox="0 0 70 70" style="enable-background:new 0 0 70 70;" xml:space="preserve">
<style type="text/css">
	.st0{fill:#0C9CFF;}
	.st1{fill:#323232;}
</style>
<g>
	<path class="st0" d="M35,0c-2,0-3.7,1.7-3.7,3.7c0,1.9,1.4,3.4,3.1,3.7v9.9c0.4,0.1,0.8,0.1,1.2,0.2V7.4c1.8-0.3,3.1-1.8,3.1-3.7
		C38.7,1.7,37,0,35,0z M35.6,6.2c-0.2,0-0.4,0.1-0.6,0.1c-0.2,0-0.4,0-0.6-0.1c-1.1-0.3-2-1.3-2-2.5c0-1.4,1.2-2.6,2.6-2.6
		c1.4,0,2.6,1.2,2.6,2.6C37.6,4.9,36.7,6,35.6,6.2z"/>
	<path class="st0" d="M59.7,10.3c-0.7-0.7-1.6-1.1-2.6-1.1c-1,0-1.9,0.4-2.6,1.1c-1.3,1.3-1.4,3.4-0.3,4.9L43.8,26
		c0.4,0.1,0.8,0.3,1.1,0.5L55,15.9c0.6,0.4,1.3,0.7,2.1,0.7c1,0,1.9-0.4,2.6-1.1c0.7-0.7,1.1-1.6,1.1-2.6
		C60.8,11.9,60.5,11,59.7,10.3z M58.9,14.7c-0.8,0.8-2.1,0.9-3.1,0.4c-0.2-0.1-0.4-0.2-0.5-0.4c-0.1-0.1-0.2-0.3-0.3-0.4
		c-0.7-1-0.5-2.4,0.3-3.2c0.5-0.5,1.1-0.8,1.8-0.8c0.7,0,1.3,0.3,1.8,0.8c0.5,0.5,0.8,1.1,0.8,1.8C59.7,13.6,59.4,14.2,58.9,14.7z"
		/>
	<path class="st0" d="M66.3,31.3c-1.9,0-3.4,1.4-3.7,3.1h-6.3c0.2,0.4,0.4,0.7,0.6,1.2h5.7c0.3,1.8,1.8,3.1,3.7,3.1
		c2,0,3.7-1.7,3.7-3.7C70,32.9,68.3,31.3,66.3,31.3z M66.3,37.6c-1.2,0-2.2-0.9-2.5-2c0-0.2-0.1-0.4-0.1-0.6s0-0.4,0.1-0.6
		c0.3-1.1,1.3-2,2.5-2c1.4,0,2.6,1.2,2.6,2.6C68.8,36.4,67.7,37.6,66.3,37.6z"/>
	<path class="st0" d="M59.7,54.5c-0.7-0.7-1.6-1.1-2.6-1.1c-0.8,0-1.5,0.3-2.2,0.7l-8.2-8.2c-0.5,0-1.1,0-1.6,0l9,9
		c-1.1,1.5-0.9,3.5,0.4,4.8c0.7,0.7,1.6,1.1,2.6,1.1c1,0,1.9-0.4,2.6-1.1c0.7-0.7,1.1-1.6,1.1-2.6C60.8,56.1,60.5,55.2,59.7,54.5z
		 M58.9,58.9c-1,1-2.7,1-3.6,0c-0.9-0.9-1-2.2-0.4-3.2c0.1-0.2,0.2-0.3,0.4-0.5c0.1-0.1,0.3-0.3,0.5-0.4c0.4-0.3,0.9-0.4,1.4-0.4
		c0.7,0,1.3,0.3,1.8,0.7c0.5,0.5,0.8,1.1,0.8,1.8C59.7,57.8,59.4,58.4,58.9,58.9z"/>
	<path class="st0" d="M35.6,62.6V45.9c-0.4,0-0.8,0-1.2,0v16.7c-1.8,0.3-3.1,1.8-3.1,3.7c0,1,0.4,1.9,1.1,2.6C33.1,69.6,34,70,35,70
		c2,0,3.7-1.7,3.7-3.7C38.7,64.4,37.4,62.9,35.6,62.6z M35,68.8c-0.7,0-1.3-0.3-1.8-0.8c-0.5-0.5-0.8-1.1-0.8-1.8
		c0-1.2,0.9-2.2,2-2.5c0.2,0,0.4-0.1,0.6-0.1c0.2,0,0.4,0,0.6,0.1c1.1,0.3,2,1.3,2,2.5C37.6,67.7,36.4,68.8,35,68.8z"/>
	<path class="st1" d="M24.6,44.8C24.6,44.8,24.6,44.8,24.6,44.8C24.6,44.8,24.6,44.8,24.6,44.8z"/>
	<path class="st0" d="M24.8,46c-0.6,0-1.1,0-1.7,0.1l-8.1,8.1c-0.6-0.5-1.4-0.7-2.2-0.7c-1,0-1.9,0.4-2.6,1.1
		c-0.7,0.7-1.1,1.6-1.1,2.6c0,1,0.4,1.9,1.1,2.6c0.7,0.7,1.6,1.1,2.6,1.1c1,0,1.9-0.4,2.6-1.1c1.3-1.3,1.4-3.4,0.4-4.8L24.8,46z
		 M14.7,58.9c-1,1-2.7,1-3.6,0c-0.5-0.5-0.8-1.1-0.8-1.8c0-0.7,0.3-1.3,0.8-1.8c0.5-0.5,1.1-0.8,1.8-0.8c0.5,0,1,0.1,1.4,0.4
		c0.2,0.1,0.3,0.2,0.5,0.4c0.1,0.1,0.3,0.3,0.4,0.5C15.7,56.7,15.6,58.1,14.7,58.9z"/>
	<path class="st0" d="M7.4,34.4c-0.3-1.8-1.8-3.1-3.7-3.1C1.7,31.3,0,33,0,35c0,2,1.7,3.7,3.7,3.7c1.9,0,3.4-1.4,3.7-3.1h8.1
		c0.2-0.4,0.4-0.8,0.7-1.2H7.4z M3.7,37.6c-1.4,0-2.6-1.1-2.6-2.6c0-1.4,1.1-2.6,2.6-2.6c1.2,0,2.2,0.9,2.5,2c0,0.2,0.1,0.4,0.1,0.6
		c0,0.2,0,0.4-0.1,0.6C5.9,36.7,4.9,37.6,3.7,37.6z"/>
	<path class="st0" d="M15.9,15.1c0.5-0.6,0.7-1.4,0.7-2.2c0-1-0.4-1.9-1.1-2.6c-0.7-0.7-1.6-1.1-2.6-1.1c-1,0-1.9,0.4-2.6,1.1
		c-0.7,0.7-1.1,1.6-1.1,2.6c0,1,0.4,1.9,1.1,2.6c0.7,0.7,1.6,1.1,2.6,1.1c0.8,0,1.5-0.3,2.2-0.7l8.8,8.8c0.1-0.4,0.2-0.9,0.4-1.3
		L15.9,15.1z M11.1,14.7c-0.5-0.5-0.8-1.1-0.8-1.8c0-0.7,0.3-1.3,0.8-1.8c0.5-0.5,1.1-0.8,1.8-0.8c0.7,0,1.3,0.3,1.8,0.8
		c0.5,0.5,0.8,1.1,0.8,1.8c0,0.5-0.1,1-0.4,1.4c-0.1,0.2-0.2,0.3-0.4,0.5c-0.1,0.1-0.3,0.3-0.5,0.4C13.3,15.6,11.9,15.5,11.1,14.7z"
		/>
	<path class="st1" d="M57,35.6c-0.2-0.4-0.4-0.8-0.6-1.2c-1.3-2-3.6-3.3-6.1-3.3c-0.1,0-0.2,0-0.3,0c-0.4,0-0.9,0.1-1.3,0.2
		c-0.5-2.1-1.9-3.8-3.7-4.8c-0.4-0.2-0.7-0.4-1.1-0.5c-0.4-0.1-0.8-0.3-1.2-0.3c-0.4-4-3.3-7.2-7-8.1c-0.4-0.1-0.8-0.2-1.2-0.2
		c-0.5-0.1-1.1-0.1-1.7-0.1c-2.5,0.1-4.9,1.2-6.6,3.1c-0.9,0.9-1.5,2-1.9,3.2c-0.2,0.4-0.3,0.8-0.4,1.3c-0.2,0.7-0.2,1.5-0.2,2.2
		c-2,1.1-3.6,2.9-4.4,5c-1.3,0.5-2.3,1.4-3.1,2.5c-0.3,0.4-0.5,0.7-0.7,1.2c-0.5,1-0.7,2.2-0.7,3.4c0.2,4,3.4,7,7.3,7
		c0.1,0,0.2,0,0.3,0c0.2,0,0.5,0,0.7,0c0.5,0,1.1,0,1.7-0.1c1.7,0,3.5-0.1,5.6-0.1c1.3,0,2.6,0,4,0c0.4,0,0.8,0,1.2,0
		c0.3,0,0.6,0,0.9,0c2,0,4,0,6,0c1,0,1.9,0,2.7,0c0.5,0,1.1,0,1.6,0c1.3,0,2.6-0.1,3.8-0.1c4-0.2,7.2-3.6,7-7.7
		C57.5,37.2,57.3,36.4,57,35.6z M50.5,44.7c-2.4,0.1-4.9,0.1-8.1,0.1c-2,0-4,0-6,0c-2,0-4,0-6,0c-2.2,0-4.1,0-5.8,0.1c0,0,0,0,0,0
		c-0.7,0-1.4,0-2.1,0.1C19,45,16.1,42.4,16,39c-0.1-2.7,1.5-5.1,4-6.1c0.2-0.1,0.3-0.2,0.3-0.4c0.7-2.1,2.2-3.8,4.2-4.8
		c0.2-0.1,0.3-0.3,0.3-0.5l0-0.2c-0.1-2.2,0.7-4.3,2.2-6c1.5-1.6,3.6-2.6,5.8-2.7c0.1,0,0.2,0,0.4,0c4.4,0,8.1,3.4,8.3,7.8
		c0,0.3,0.2,0.5,0.5,0.5c2.8,0.2,5.2,2.5,5.6,5.3c0,1-0.9,1.8-2,1.8c-0.3,0-0.6,0.3-0.6,0.6s0.3,0.6,0.6,0.6c1.6,0,2.9-1.1,3.1-2.5
		c0.4-0.1,0.8-0.2,1.3-0.2c3.5-0.1,6.3,2.5,6.5,5.9C56.6,41.6,53.9,44.5,50.5,44.7z"/>
</g>
</svg>
