<?xml version="1.0" encoding="utf-8"?>
<!-- Generator: Adobe Illustrator 26.3.1, SVG Export Plug-In . SVG Version: 6.00 Build 0)  -->
<svg version="1.1" id="Layer_1" xmlns="http://www.w3.org/2000/svg" xmlns:xlink="http://www.w3.org/1999/xlink" x="0px" y="0px"
	 viewBox="0 0 80 80" style="enable-background:new 0 0 80 80;" xml:space="preserve">
<style type="text/css">
	.st0{fill:none;stroke:#323232;stroke-miterlimit:10;}
	.st1{fill:#323232;}
	.st2{fill:none;stroke:#323232;stroke-linejoin:round;stroke-miterlimit:10;}
</style>
<path class="st0" d="M44.4,52.9H4c-0.8,0-1.2-0.6-1.2-1.3v-6.3V10.7c0-0.8,0.6-1.3,1.2-1.3h55.8c0.8,0,1.2,0.6,1.2,1.3v1.5v38.7
	c0,1.1-0.9,2-2,2H44.4z"/>
<path class="st0" d="M38.2,55.5v5.2"/>
<path class="st0" d="M26.7,60.6v-5.2"/>
<path class="st0" d="M43.2,60.6H21.7"/>
<path class="st0" d="M61,45.3H2.7"/>
<path class="st0" d="M30.6,49h3.8"/>
<path class="st0" d="M6.5,14.5h10.1"/>
<path class="st0" d="M11.6,19.6h3.8"/>
<path class="st0" d="M16.6,19.6h15.2"/>
<path class="st0" d="M11.6,24.8H23"/>
<path class="st0" d="M24.2,24.8h5.1"/>
<path class="st0" d="M11.6,35h3.8"/>
<path class="st0" d="M16.6,35h24.1"/>
<path class="st0" d="M11.6,40.1H23"/>
<path class="st0" d="M24.2,40.1h5.1"/>
<path class="st0" d="M6.5,29.9h11.4"/>
<path class="st1" d="M114.3,48.4v19.2c0,1.6,1.4,3,2.9,3h23.5c1.6,0,2.9-1.4,2.9-3V18.9c0-1.6-1.4-3-2.9-3h-23.5
	c-1.6,0-2.9,1.4-2.9,3v20.7V48.4z"/>
<g>
	<path class="st0" d="M124.4,39.7l-3.6,3.6l3.6,3.6"/>
	<path class="st0" d="M133.5,39.7l3.6,3.6l-3.6,3.6"/>
	<path class="st0" d="M130.8,36.9l-3.6,12.8"/>
</g>
<line class="st2" x1="114.3" y1="24" x2="143.5" y2="24"/>
<line class="st2" x1="122" y1="20" x2="135.8" y2="20"/>
<circle class="st2" cx="128.9" cy="66.5" r="2"/>
<line class="st2" x1="114.3" y1="62.1" x2="143.5" y2="62.1"/>
</svg>
