<?xml version="1.0" encoding="utf-8"?>
<!-- Generator: Adobe Illustrator 26.3.1, SVG Export Plug-In . SVG Version: 6.00 Build 0)  -->
<svg version="1.1" id="Layer_1" xmlns="http://www.w3.org/2000/svg" xmlns:xlink="http://www.w3.org/1999/xlink" x="0px" y="0px"
	 viewBox="0 0 80 80" style="enable-background:new 0 0 80 80;" xml:space="preserve">
<style type="text/css">
	.st0{fill:#323232;}
	.st1{fill:none;stroke:#0C9CFF;}
</style>
<g>
	<g>
		<path class="st0" d="M56,33.5c-6.5,4-5.7,12.2,1,15.1c0,0.2,0,0.3,0,0.3c-1.1,3.2-2.9,5.9-5.3,8.5c-1.9,1.8-4.2,2.4-6.8,1.4
			c-2.9-1.4-5.7-1.2-8.4,0c-2.1,0.9-4.4,0.8-6-0.9c-5.7-5.6-8.6-12-7.1-19.8c0.8-4.4,3.7-7.5,8.6-8.4c1.5-0.3,2.9,0.2,4.5,0.3
			c0.6,0,1.1,0.3,1.8,0.6c1.5,0.6,2.7,0.6,4.2,0c2.1-0.9,4.4-1.5,6.8-1.1C52,30,54.2,31.2,56,33.5z"/>
		<path class="st0" d="M48.3,18.7c1,4.1-3.6,9.9-8.6,9.3C38.6,24,43.7,18.2,48.3,18.7z"/>
	</g>
	<g>
		<path class="st1" d="M7.4,36.8V14c0-3.5,2.9-6.5,6.5-6.5h26"/>
		<path class="st1" d="M35,2.5l4.9,4.9L35,12.4"/>
		<path class="st1" d="M12.2,46.5l-4.9-4.9l-4.8,4.9"/>
		<path class="st1" d="M44.9,7.4h21.2c3.5,0,6.5,2.9,6.5,6.5v26"/>
		<path class="st1" d="M72.5,44.9v21.2c0,3.5-2.9,6.5-6.5,6.5h-26"/>
		<path class="st1" d="M44.9,67.8l-4.9,4.8l4.9,4.9"/>
		<path class="st1" d="M35,72.6H13.9c-3.5,0-6.5-2.9-6.5-6.5V41.6"/>
		<path class="st1" d="M67.7,35.1l4.9,4.9l4.9-4.9"/>
	</g>
</g>
</svg>
