<?xml version="1.0" encoding="utf-8"?>
<!-- Generator: Adobe Illustrator 26.3.1, SVG Export Plug-In . SVG Version: 6.00 Build 0)  -->
<svg version="1.1" id="Layer_1" xmlns="http://www.w3.org/2000/svg" xmlns:xlink="http://www.w3.org/1999/xlink" x="0px" y="0px"
	 viewBox="0 0 80 80" style="enable-background:new 0 0 80 80;" xml:space="preserve">
<style type="text/css">
	.st0{fill:none;stroke:#353535;stroke-miterlimit:10;}
	.st1{fill:none;stroke:#353535;stroke-linejoin:round;stroke-miterlimit:10;}
	.st2{fill:none;stroke:#0C9CFF;stroke-miterlimit:10;}
</style>
<g>
	<path class="st0" d="M43.5,27.6V12.2c0-1.9,1.5-3.4,3.4-3.4h26.9c1.8,0,3.4,1.5,3.4,3.4v23.6v10.1v21.9c0,1.9-1.5,3.4-3.4,3.4H46.9
		c-1.8,0-3.4-1.5-3.4-3.4V53.8"/>
	<path class="st1" d="M43.5,59.9h33.6"/>
	<path class="st1" d="M77.1,17.5H43.5"/>
	<path class="st0" d="M35.7,27.2V12.2c0-1.9-1.5-3.4-3.4-3.4H5.5c-1.8,0-3.4,1.5-3.4,3.4v23.6v10.1v21.9c0,1.9,1.5,3.4,3.4,3.4h26.9
		c1.8,0,3.4-1.5,3.4-3.4V53.8"/>
	<path class="st1" d="M25.8,13.3H12.1l-1-4.1h15.7L25.8,13.3z"/>
	<rect x="24.1" y="29.1" class="st2" width="29.8" height="22.9"/>
	<path class="st2" d="M34.3,36.3l-4,4l4,4"/>
	<path class="st2" d="M44.2,36.3l4,4l-4,4"/>
	<path class="st2" d="M41.3,33.3l-4,13.9"/>
	<circle class="st1" cx="60.3" cy="65.4" r="3"/>
	<line class="st1" x1="53.9" y1="13.2" x2="66.8" y2="13.2"/>
</g>
</svg>
