<?xml version="1.0" encoding="utf-8"?>
<!-- Generator: Adobe Illustrator 26.3.1, SVG Export Plug-In . SVG Version: 6.00 Build 0)  -->
<svg version="1.1" id="Layer_1" xmlns="http://www.w3.org/2000/svg" height="70" width="70"
    xmlns:xlink="http://www.w3.org/1999/xlink" x="0px" y="0px" viewBox="0 0 80 80"
    style="enable-background:new 0 0 80 80;" xml:space="preserve">
    <style type="text/css">
        .st0 {
            fill: none;
            stroke: #323232;
            stroke-miterlimit: 10;
        }

        .st1 {
            fill: none;
            stroke: #0C9CFF;
            stroke-miterlimit: 10;
        }
    </style>
    <path class="st0"
        d="M42.8,12.7c0-3.4,0.3-10.3-9.2-10.3c-7.5,0-14.4,7.6-14.6,12.1c-5.7,0.7-11.1,6-10.3,12.6
	c-5.4,2.5-9.3,15.8-2.3,22.2C5.1,54.7,9,67.1,20.8,66.1c2.9,14.5,22,14.1,22,3.4V61 M31.8,24.8c-6.7,0-12.8-1-12.8-10.3" />
    <path class="st1"
        d="M19.6,36.6c3.1,1.9,8.3,1.1,11.1-1.6c2.1-2,4.3-5.3,6.6-5.1h29.3 M33.6,61.3c1.3-3,4.6-3.7,9.2-3.7h23.8" />
    <path class="st0" d="M23.5,56.4c-3.1-0.5-5.8-3.2-5.8-5.4 M20.8,66.1c0-6.6,4-15.2,14.2-15.2" />
    <path class="st1" d="M13.9,31.5c3.2,0,5.8,2.1,5.8,5.1c0,2.4-1.6,4.7-3.8,5.4 M53.8,16.1h-11c-5,0-9.9-0.7-11.6-4.7" />
    <path class="st0" d="M42.8,19.6v10.3 M42.8,35.1v19" />
    <path class="st1" d="M42.8,43.7h11 M46.4,71.3h7.3 M77.6,29.9c0,2.9-2.5,5.2-5.5,5.2c-3,0-5.5-2.3-5.5-5.2c0-2.9,2.5-5.2,5.5-5.2
	C75.1,24.8,77.6,27.1,77.6,29.9z M64.7,16.1c0,2.9-2.5,5.2-5.5,5.2c-3,0-5.5-2.3-5.5-5.2c0-2.9,2.5-5.2,5.5-5.2
	C62.3,11,64.7,13.3,64.7,16.1z M64.7,43.7c0,2.9-2.5,5.2-5.5,5.2c-3,0-5.5-2.3-5.5-5.2c0-2.9,2.5-5.2,5.5-5.2
	C62.3,38.6,64.7,40.9,64.7,43.7z M64.7,71.3c0,2.9-2.5,5.2-5.5,5.2c-3,0-5.5-2.3-5.5-5.2c0-2.9,2.5-5.2,5.5-5.2
	C62.3,66.1,64.7,68.5,64.7,71.3z M77.6,57.5c0,2.9-2.5,5.2-5.5,5.2c-3,0-5.5-2.3-5.5-5.2c0-2.9,2.5-5.2,5.5-5.2
	C75.1,52.3,77.6,54.7,77.6,57.5z" />
</svg>