<?xml version="1.0" encoding="utf-8"?>
<!-- Generator: Adobe Illustrator 26.3.1, SVG Export Plug-In . SVG Version: 6.00 Build 0)  -->
<svg version="1.1" id="Layer_1" xmlns="http://www.w3.org/2000/svg" xmlns:xlink="http://www.w3.org/1999/xlink" x="0px" y="0px"
	 viewBox="0 0 72 72" style="enable-background:new 0 0 72 72;" xml:space="preserve">
<style type="text/css">
	.st0{fill:#323232;stroke:#FFFFFF;stroke-miterlimit:10;}
	.st1{fill:#FFFFFF;stroke:#FFFFFF;stroke-miterlimit:10;}
	.st2{fill:none;stroke:#0C9CFF;}
</style>
<path class="st0" d="M54.3,29.9h-38V17.7c0-0.9,0.6-1.5,1.5-1.5h35c0.9,0,1.5,0.6,1.5,1.5V29.9z"/>
<path class="st0" d="M54.3,29.9v13.7h-38V29.9"/>
<path class="st0" d="M54.3,43.6v12.2c0,0.9-0.6,1.5-1.5,1.5h-35c-0.9,0-1.5-0.6-1.5-1.5V43.6"/>
<path class="st1" d="M20.8,23.8h3"/>
<path class="st1" d="M20.8,37.5h3"/>
<path class="st1" d="M20.8,51.2h3"/>
<path class="st2" d="M5.6,33V11.7c0-3.3,2.7-6.1,6.1-6.1H36"/>
<path class="st2" d="M31.4,1L36,5.6l-4.6,4.6"/>
<path class="st2" d="M10.1,42.1l-4.6-4.6L1,42.1"/>
<path class="st2" d="M40.6,5.6h19.8c3.3,0,6.1,2.7,6.1,6.1V36"/>
<path class="st2" d="M66.4,40.6v19.8c0,3.3-2.7,6.1-6.1,6.1H36"/>
<path class="st2" d="M40.6,61.9L36,66.4l4.6,4.6"/>
<path class="st2" d="M31.4,66.4H11.7c-3.3,0-6.1-2.7-6.1-6.1V37.5"/>
<path class="st2" d="M61.9,31.4l4.6,4.6l4.6-4.6"/>
</svg>
