<?xml version="1.0" encoding="utf-8"?>
<!-- Generator: Adobe Illustrator 26.3.1, SVG Export Plug-In . SVG Version: 6.00 Build 0)  -->
<svg version="1.1" id="Layer_1" xmlns="http://www.w3.org/2000/svg" xmlns:xlink="http://www.w3.org/1999/xlink" x="0px" y="0px"
	 viewBox="0 0 80 80" style="enable-background:new 0 0 80 80;" xml:space="preserve">
<style type="text/css">
	.st0{fill:none;stroke:#0C9CFF;stroke-linejoin:round;}
	.st1{fill:none;stroke:#323232;stroke-miterlimit:10;}
	.st2{fill:#0C9CFF;}
	.st3{fill:#323232;}
</style>
<path class="st0" d="M47.8,19.9h1.7l8.7-8.7 M58.3,68.8L47.8,58.3"/>
<path class="st1" d="M39.1,47.8h-1.7c-4.8,0-8.7-3.9-8.7-8.7s3.9-8.7,8.7-8.7h14l7-7H67"/>
<polyline class="st1" points="67,56.6 60.1,56.6 51.3,47.8 49.6,47.8 "/>
<circle class="st2" cx="61.8" cy="7.7" r="5.2"/>
<circle class="st3" cx="72.3" cy="23.4" r="5.2"/>
<circle class="st2" cx="72.3" cy="39.1" r="5.2"/>
<path class="st3" d="M77.5,56.6c0,2.9-2.3,5.2-5.2,5.2S67,59.5,67,56.6c0-2.9,2.3-5.2,5.2-5.2S77.5,53.7,77.5,56.6L77.5,56.6z"/>
<path class="st2" d="M67,72.3c0,2.9-2.3,5.2-5.2,5.2s-5.2-2.3-5.2-5.2c0-2.9,2.3-5.2,5.2-5.2S67,69.4,67,72.3L67,72.3z"/>
<line class="st0" x1="49.6" y1="39.1" x2="65.3" y2="39.1"/>
<line class="st0" x1="35.6" y1="39.1" x2="39.1" y2="39.1"/>
<line class="st0" x1="42.6" y1="39.1" x2="46.1" y2="39.1"/>
<line class="st1" x1="42.6" y1="47.8" x2="46.1" y2="47.8"/>
<path class="st3" d="M44.4,19.6V13V4.2h-14v7.9c-2.5,0.6-4.9,1.6-7.2,3l-5.6-5.6l-9.9,9.9l5.6,5.6c-1.3,2.2-2.3,4.7-3,7.2H2.5v14
	h7.9c0.6,2.5,1.6,4.9,3,7.2l-5.6,5.6l9.9,9.9l5.6-5.6c2.2,1.3,4.7,2.3,7.2,3V74h14v-8.7v-6.8h-7.1c-10.7,0-19.3-8.7-19.3-19.3
	s8.7-19.3,19.3-19.3L44.4,19.6z"/>
</svg>
