<?xml version="1.0" encoding="utf-8"?>
<!-- Generator: Adobe Illustrator 26.3.1, SVG Export Plug-In . SVG Version: 6.00 Build 0)  -->
<svg version="1.1" id="Layer_1" xmlns="http://www.w3.org/2000/svg" xmlns:xlink="http://www.w3.org/1999/xlink" x="0px" y="0px"
	 viewBox="0 0 80 80" style="enable-background:new 0 0 80 80;" xml:space="preserve">
<style type="text/css">
	.st0{display:none;fill:#930000;}
	.st1{fill:none;}
	.st2{fill:#353535;}
	.st3{fill:none;stroke:#0C9CFF;stroke-miterlimit:10;}
</style>
<rect class="st0" width="80" height="80"/>
<g>
	<rect x="52.3" y="10.5" class="st1" width="13.9" height="1.1"/>
	<path class="st1" d="M28.6,13.4L29.7,9c0-0.2,0-0.3-0.1-0.5c-0.1-0.1-0.3-0.2-0.4-0.2h-17c-0.2,0-0.3,0.1-0.4,0.2
		c-0.1,0.1-0.1,0.3-0.1,0.5l1.1,4.4c0.1,0.2,0.3,0.4,0.5,0.4h14.8C28.4,13.8,28.6,13.7,28.6,13.4z M13.7,12.8l-0.8-3.3h15.6
		l-0.8,3.3H13.7z"/>
	<path class="st1" d="M59.2,63.7c-2.1,0-3.8,1.7-3.8,3.8s1.7,3.8,3.8,3.8c2.1,0,3.8-1.7,3.8-3.8S61.3,63.7,59.2,63.7z M59.2,70.2
		c-1.5,0-2.7-1.2-2.7-2.7s1.2-2.7,2.7-2.7c1.5,0,2.7,1.2,2.7,2.7S60.7,70.2,59.2,70.2z"/>
	<path class="st2" d="M23.9,27.6h14.9l0-1.5V10c0-2.1-1.6-3.7-3.7-3.7h-29c-1.9,0-3.7,1.6-3.7,3.7v25.5v10.9V70
		c0,2.1,1.6,3.7,3.7,3.7h29.1c1.9,0,3.7-1.6,3.7-3.7V54.9l0-2.5h-15V27.6z M12.8,13.4L11.7,9c0-0.2,0-0.3,0.1-0.5
		c0.1-0.1,0.3-0.2,0.4-0.2h17c0.2,0,0.3,0.1,0.4,0.2c0.1,0.1,0.1,0.3,0.1,0.5l-1.1,4.4c-0.1,0.2-0.3,0.4-0.5,0.4H13.3
		C13.1,13.8,12.8,13.7,12.8,13.4z"/>
	<polygon class="st2" points="12.9,9.4 13.7,12.8 27.7,12.8 28.5,9.4 	"/>
	<circle class="st2" cx="59.2" cy="67.4" r="2.7"/>
	<path class="st2" d="M73.8,6.3H44.8c-2.1,0-3.7,1.6-3.7,3.7v5.2h36.3v1.1H41.1v10.4v1h15v24.7h-15v2.5V61h36.3V62H41.1v8
		c0,2.1,1.7,3.7,3.7,3.7h29.1c2.1,0,3.7-1.6,3.7-3.7V46.4V35.5V10C77.5,7.9,75.8,6.3,73.8,6.3z M66.3,11.6H52.3v-1.1h13.9V11.6z
		 M59.2,71.2c-2.1,0-3.8-1.7-3.8-3.8s1.7-3.8,3.8-3.8c2.1,0,3.8,1.7,3.8,3.8S61.3,71.2,59.2,71.2z"/>
	<rect x="24" y="27.6" class="st3" width="32.2" height="24.7"/>
	<g>
		<path class="st3" d="M34.7,35.7l-4.3,4.3l4.3,4.3"/>
		<path class="st3" d="M45.4,35.7l4.3,4.3l-4.3,4.3"/>
		<path class="st3" d="M42.3,32.5l-4.3,15"/>
	</g>
</g>
</svg>
