<?xml version="1.0" encoding="utf-8"?>
<!-- Generator: Adobe Illustrator 26.3.1, SVG Export Plug-In . SVG Version: 6.00 Build 0)  -->
<svg version="1.1" id="Layer_1" xmlns="http://www.w3.org/2000/svg" xmlns:xlink="http://www.w3.org/1999/xlink" x="0px" y="0px"
	 viewBox="0 0 81 80" style="enable-background:new 0 0 81 80;" xml:space="preserve">
<style type="text/css">
	.st0{fill:none;stroke:#323232;stroke-width:1.5;stroke-miterlimit:10;}
	.st1{fill:none;stroke:#323232;stroke-width:1.5;stroke-linejoin:round;stroke-miterlimit:10;}
</style>
<g>
	<path class="st0" d="M69.5,20.4V4.3c0-1.1-0.7-1.8-1.7-1.8H4.7C3.7,2.5,3,3.2,3,4.3v62.5c0,1.1,0.7,1.8,1.7,1.8h39.2"/>
	<path class="st0" d="M49,50.7v23.2c0,2,1.5,3.6,3.4,3.6h22.2c1.9,0,3.4-1.6,3.4-3.6V29.3c0-2-1.5-3.6-3.4-3.6H52.4
		c-1.9,0-3.4,1.6-3.4,3.6V40"/>
	<path class="st1" d="M60.5,72.1h6"/>
	<path class="st0" d="M6.4,13.2h59.7"/>
	<path class="st0" d="M8.1,7.9h3.4"/>
	<path class="st0" d="M13.2,7.9h3.4"/>
	<path class="st0" d="M26.9,45.4h39.2"/>
	<path class="st0" d="M59.3,52.5l6.8-7.1l-6.8-7.1"/>
	<path class="st0" d="M33.7,52.5l-6.8-7.1l6.8-7.1"/>
</g>
</svg>
