<?xml version="1.0" encoding="utf-8"?>
<!-- Generator: Adobe Illustrator 26.3.1, SVG Export Plug-In . SVG Version: 6.00 Build 0)  -->
<svg version="1.1" id="Layer_1" xmlns="http://www.w3.org/2000/svg" xmlns:xlink="http://www.w3.org/1999/xlink" x="0px" y="0px"
	 viewBox="0 0 80 80" style="enable-background:new 0 0 80 80;" xml:space="preserve">
<style type="text/css">
	.st0{fill:#323232;}
	.st1{fill:none;stroke:#FFFFFF;stroke-miterlimit:10;}
	.st2{fill:none;stroke:#323232;stroke-miterlimit:10;}
	.st3{fill:none;stroke:#0C9CFF;stroke-width:1.5;stroke-miterlimit:10;}
</style>
<g>
	<path class="st0" d="M40,45.7V73c0,2.5-1.8,4.5-3.9,4.5H6.4c-2.2,0-3.9-2-3.9-4.5V7c0-2.5,1.8-4.5,3.9-4.5H36c2.2,0,3.9,2,3.9,4.5
		v25"/>
	<path class="st1" d="M18.3,70.7h5.9"/>
	<path class="st1" d="M12.2,9.5h18"/>
	<path class="st2" d="M44.2,44.4v10.5c0,1.9,1.4,3.5,3,3.5h21.2c1.7,0,3-1.6,3-3.5V25.2c0-1.9-1.4-3.5-3-3.5H47.2
		c-1.7,0-3,1.6-3,3.5v8.7"/>
	<path class="st0" d="M48.7,58.3v8.8h18.2v-8.8"/>
	<path class="st0" d="M66.9,21.7v-9H48.7v9"/>
	<path class="st0" d="M71.3,33.9h1.6c0.9,0,1.6,0.7,1.6,1.7v7c0,1-0.6,1.7-1.6,1.7h-1.6"/>
	<g>
		<path class="st3" d="M62.3,38.9h-41"/>
		<path class="st3" d="M27.3,45.7l-5.9-6.8l5.9-6.8"/>
		<path class="st3" d="M56.4,45.7l5.9-6.8L56.4,32"/>
	</g>
</g>
</svg>
